<?xml version="1.0" encoding="UTF-8"?>
<svg xmlns="http://www.w3.org/2000/svg" xmlns:xlink="http://www.w3.org/1999/xlink" width="16px" height="16px" viewBox="0 0 16 16" version="1.1">
<g id="surface1">
<path style=" stroke:none;fill-rule:nonzero;fill:rgb(95.686275%,26.274511%,21.176471%);fill-opacity:1;" d="M 0 1.777344 L 0 14.222656 C 0 15.203125 0.796875 16 1.777344 16 L 14.222656 16 C 15.203125 16 16 15.203125 16 14.222656 L 16 1.777344 C 16 0.796875 15.203125 0 14.222656 0 L 1.777344 0 C 0.796875 0 0 0.796875 0 1.777344 Z M 14.222656 14.222656 L 1.777344 14.222656 L 1.777344 1.777344 L 14.222656 1.777344 Z M 14.222656 14.222656 "/>
<path style=" stroke:none;fill-rule:nonzero;fill:rgb(95.686275%,26.274511%,21.176471%);fill-opacity:1;" d="M 10.667969 8 L 12.445312 8 L 12.445312 3.554688 L 8 3.554688 L 8 5.332031 L 10.667969 5.332031 Z M 8 10.667969 L 5.332031 10.667969 L 5.332031 8 L 3.554688 8 L 3.554688 12.445312 L 8 12.445312 Z M 8 10.667969 "/>
</g>
</svg>
