<?xml version="1.0" encoding="UTF-8"?>
<svg xmlns="http://www.w3.org/2000/svg" xmlns:xlink="http://www.w3.org/1999/xlink" width="16px" height="16px" viewBox="0 0 16 16" version="1.1">
<g id="surface1">
<path style=" stroke:none;fill-rule:nonzero;fill:rgb(95.686275%,26.274511%,21.176471%);fill-opacity:1;" d="M 12.394531 15.652344 C 14.390625 15.652344 16.007812 14.035156 16.007812 12.039062 C 16.007812 10.046875 14.390625 8.429688 12.394531 8.429688 C 10.398438 8.429688 8.78125 10.046875 8.78125 12.039062 C 8.78125 14.035156 10.398438 15.652344 12.394531 15.652344 Z M 12.761719 9.609375 L 14.308594 11.160156 C 14.511719 11.359375 14.511719 11.6875 14.308594 11.890625 C 14.105469 12.09375 13.78125 12.09375 13.578125 11.890625 L 12.910156 11.222656 L 12.910156 14.105469 C 12.910156 14.390625 12.679688 14.621094 12.394531 14.621094 C 12.109375 14.621094 11.878906 14.390625 11.878906 14.105469 L 11.878906 11.222656 L 11.210938 11.890625 C 11.011719 12.09375 10.683594 12.09375 10.480469 11.890625 C 10.28125 11.6875 10.277344 11.363281 10.480469 11.160156 L 12.027344 9.613281 C 12.230469 9.410156 12.558594 9.410156 12.757812 9.609375 L 12.761719 9.613281 Z M 12.761719 9.609375 "/>
<path style=" stroke:none;fill-rule:nonzero;fill:rgb(95.686275%,26.274511%,21.176471%);fill-opacity:1;" d="M 8.480469 0.6875 C 8.078125 0.285156 7.421875 0.285156 7.019531 0.6875 L 0.160156 7.546875 C -0.0429688 7.75 -0.0429688 8.074219 0.160156 8.277344 C 0.359375 8.480469 0.6875 8.480469 0.890625 8.277344 L 7.75 1.417969 L 14.609375 8.277344 C 14.8125 8.480469 15.140625 8.480469 15.339844 8.277344 C 15.542969 8.074219 15.542969 7.75 15.339844 7.546875 L 12.910156 5.117188 L 12.910156 1.71875 C 12.910156 1.433594 12.679688 1.203125 12.394531 1.203125 L 11.363281 1.203125 C 11.078125 1.203125 10.847656 1.433594 10.847656 1.71875 L 10.847656 3.054688 Z M 8.480469 0.6875 "/>
<path style=" stroke:none;fill-rule:nonzero;fill:rgb(95.686275%,26.274511%,21.176471%);fill-opacity:1;" d="M 7.75 2.539062 L 12.613281 7.402344 C 10.050781 7.28125 7.875 9.257812 7.753906 11.820312 C 7.707031 12.8125 7.980469 13.796875 8.53125 14.621094 L 3.105469 14.621094 C 2.25 14.621094 1.554688 13.929688 1.554688 13.074219 L 1.554688 8.730469 Z M 7.75 2.539062 "/>
</g>
</svg>
