<?xml version="1.0" encoding="UTF-8"?>
<svg xmlns="http://www.w3.org/2000/svg" xmlns:xlink="http://www.w3.org/1999/xlink" width="16px" height="16px" viewBox="0 0 16 16" version="1.1">
<g id="surface1">
<path style=" stroke:none;fill-rule:nonzero;fill:rgb(95.686275%,26.274511%,21.176471%);fill-opacity:1;" d="M 8.800781 4.804688 C 11.335938 4.804688 12.773438 6.484375 12.984375 8.507812 L 13.046875 8.507812 C 14.679688 8.507812 16 9.828125 16 11.453125 C 16 13.082031 14.679688 14.402344 13.046875 14.402344 L 4.554688 14.402344 C 2.925781 14.402344 1.601562 13.082031 1.601562 11.453125 C 1.601562 9.828125 2.925781 8.507812 4.554688 8.507812 L 4.621094 8.507812 C 4.832031 6.46875 6.265625 4.804688 8.800781 4.804688 Z M 1.894531 8.128906 C 2.011719 8.410156 1.898438 8.730469 1.644531 8.878906 L 1.570312 8.914062 L 0.828125 9.21875 C 0.523438 9.347656 0.171875 9.203125 0.046875 8.894531 C -0.0703125 8.617188 0.0429688 8.296875 0.296875 8.148438 L 0.371094 8.113281 L 1.113281 7.804688 C 1.417969 7.679688 1.769531 7.824219 1.894531 8.128906 Z M 7.085938 4.265625 L 6.945312 4.308594 C 5.519531 4.8125 4.496094 5.914062 4.054688 7.367188 L 4 7.566406 L 3.953125 7.757812 L 3.789062 7.789062 C 3.300781 7.890625 2.847656 8.089844 2.453125 8.359375 C 2.382812 8.242188 2.316406 8.113281 2.261719 7.980469 C 1.597656 6.371094 2.359375 4.527344 3.96875 3.859375 C 5.042969 3.414062 6.21875 3.609375 7.085938 4.265625 Z M 0.753906 4.289062 L 0.839844 4.316406 L 1.578125 4.625 C 1.886719 4.75 2.03125 5.101562 1.902344 5.40625 C 1.789062 5.683594 1.488281 5.832031 1.203125 5.757812 L 1.121094 5.730469 L 0.378906 5.425781 C 0.0742188 5.296875 -0.0703125 4.945312 0.0546875 4.640625 C 0.167969 4.363281 0.46875 4.21875 0.753906 4.289062 Z M 3.804688 1.898438 L 3.84375 1.972656 L 4.148438 2.714844 C 4.277344 3.019531 4.128906 3.371094 3.824219 3.496094 C 3.542969 3.613281 3.226562 3.5 3.078125 3.246094 L 3.039062 3.171875 L 2.734375 2.433594 C 2.605469 2.125 2.75 1.773438 3.058594 1.648438 C 3.339844 1.53125 3.65625 1.644531 3.804688 1.898438 Z M 7.289062 1.644531 C 7.566406 1.761719 7.710938 2.0625 7.640625 2.34375 L 7.613281 2.429688 L 7.304688 3.171875 C 7.179688 3.476562 6.828125 3.621094 6.523438 3.496094 C 6.242188 3.378906 6.097656 3.078125 6.167969 2.796875 L 6.195312 2.710938 L 6.503906 1.96875 C 6.628906 1.664062 6.980469 1.519531 7.289062 1.644531 Z M 7.289062 1.644531 "/>
</g>
</svg>
