<?xml version="1.0" encoding="UTF-8"?>
<svg xmlns="http://www.w3.org/2000/svg" xmlns:xlink="http://www.w3.org/1999/xlink" width="16px" height="16px" viewBox="0 0 16 16" version="1.1">
<g id="surface1">
<path style=" stroke:none;fill-rule:nonzero;fill:rgb(95.686275%,26.274511%,21.176471%);fill-opacity:1;" d="M 8.242188 6.566406 L 14.140625 12.492188 L 14.144531 12.496094 C 14.316406 12.667969 14.402344 12.890625 14.402344 13.117188 C 14.402344 13.339844 14.316406 13.558594 14.144531 13.734375 C 13.96875 13.90625 13.746094 13.992188 13.519531 13.992188 C 13.289062 13.992188 13.070312 13.90625 12.894531 13.734375 L 6.976562 7.835938 C 6.664062 7.523438 6.15625 7.523438 5.847656 7.835938 C 5.535156 8.148438 5.535156 8.652344 5.847656 8.964844 L 11.765625 14.867188 C 12.25 15.347656 12.886719 15.589844 13.519531 15.589844 C 14.148438 15.589844 14.789062 15.347656 15.269531 14.867188 C 15.753906 14.386719 16 13.746094 16 13.117188 C 16 12.484375 15.753906 11.84375 15.269531 11.363281 L 15.273438 11.367188 L 9.375 5.4375 C 9.0625 5.125 8.558594 5.125 8.246094 5.4375 C 7.933594 5.75 7.929688 6.253906 8.242188 6.566406 Z M 8.242188 6.566406 "/>
<path style=" stroke:none;fill-rule:nonzero;fill:rgb(95.686275%,26.274511%,21.176471%);fill-opacity:1;" d="M 3.742188 11.324219 L 4.308594 10.757812 L 1.65625 8.105469 L 1.597656 7.964844 L 1.65625 7.824219 L 1.722656 7.78125 L 4.3125 6.746094 C 4.410156 6.707031 4.503906 6.644531 4.582031 6.566406 L 8.808594 2.339844 L 10.074219 3.605469 L 5.847656 7.835938 C 5.773438 7.910156 5.710938 8.003906 5.671875 8.101562 L 4.636719 10.691406 C 4.605469 10.769531 4.527344 10.816406 4.449219 10.816406 L 4.375 10.804688 L 4.308594 10.757812 L 3.742188 11.324219 L 3.179688 11.890625 C 3.351562 12.0625 3.554688 12.195312 3.78125 12.285156 C 4 12.375 4.226562 12.414062 4.449219 12.414062 C 5.164062 12.417969 5.835938 11.988281 6.117188 11.285156 L 7.09375 8.847656 L 11.769531 4.171875 C 11.921875 4.023438 12.003906 3.816406 12.003906 3.605469 C 12.003906 3.394531 11.921875 3.191406 11.769531 3.039062 L 9.375 0.644531 C 9.0625 0.332031 8.554688 0.332031 8.246094 0.644531 L 3.566406 5.320312 L 1.128906 6.296875 C 0.90625 6.386719 0.699219 6.523438 0.527344 6.695312 C 0.175781 7.042969 0 7.507812 0 7.964844 C 0 8.421875 0.175781 8.886719 0.527344 9.234375 L 0.527344 9.238281 L 3.179688 11.890625 Z M 3.742188 11.324219 "/>
</g>
</svg>
