<?xml version="1.0" encoding="UTF-8"?>
<svg xmlns="http://www.w3.org/2000/svg" xmlns:xlink="http://www.w3.org/1999/xlink" width="16px" height="16px" viewBox="0 0 16 16" version="1.1">
<g id="surface1">
<path style=" stroke:none;fill-rule:nonzero;fill:rgb(1.176471%,66.274512%,95.686275%);fill-opacity:1;" d="M 6 0 C 5.441406 0 4.917969 0.199219 4.558594 0.558594 C 4.199219 0.917969 4 1.441406 4 2 C 4 2.558594 4.359375 2.960938 4.558594 3.441406 C 4.617188 3.558594 4.617188 3.757812 4.617188 4 L 0 4 L 0 16 L 4.617188 16 C 4.617188 15.757812 4.597656 15.558594 4.558594 15.441406 C 4.359375 14.960938 4 14.558594 4 14 C 4 13.441406 4.199219 12.917969 4.558594 12.558594 C 4.917969 12.199219 5.441406 12 6 12 C 6.558594 12 7.082031 12.199219 7.441406 12.558594 C 7.800781 12.917969 8 13.441406 8 14 C 8 14.558594 7.640625 14.960938 7.441406 15.441406 C 7.382812 15.558594 7.382812 15.757812 7.382812 16 L 12 16 L 12 11.382812 C 12.242188 11.382812 12.441406 11.402344 12.558594 11.441406 C 13.039062 11.640625 13.441406 12 14 12 C 14.558594 12 15.082031 11.800781 15.441406 11.441406 C 15.800781 11.082031 16 10.558594 16 10 C 16 9.441406 15.800781 8.917969 15.441406 8.558594 C 15.082031 8.199219 14.558594 8 14 8 C 13.441406 8 13.039062 8.359375 12.558594 8.558594 C 12.441406 8.617188 12.242188 8.617188 12 8.617188 L 12 4 L 7.382812 4 C 7.382812 3.757812 7.402344 3.558594 7.441406 3.441406 C 7.640625 2.960938 8 2.558594 8 2 C 8 1.441406 7.800781 0.917969 7.441406 0.558594 C 7.082031 0.199219 6.558594 0 6 0 Z M 6 0 "/>
</g>
</svg>
