<?xml version="1.0" encoding="UTF-8"?>
<svg xmlns="http://www.w3.org/2000/svg" xmlns:xlink="http://www.w3.org/1999/xlink" width="16px" height="16px" viewBox="0 0 16 16" version="1.1">
<g id="surface1">
<path style=" stroke:none;fill-rule:nonzero;fill:rgb(12.941177%,58.823532%,95.294118%);fill-opacity:1;" d="M 11.691406 5.234375 L 10.765625 5.234375 L 10.765625 4.226562 L 8.640625 4.226562 L 8.640625 5.234375 L 4.316406 5.234375 L 4.316406 10.566406 L 11.691406 10.566406 Z M 8.003906 9.800781 C 6.953125 9.800781 6.101562 8.949219 6.101562 7.898438 C 6.101562 6.851562 6.953125 6 8.003906 6 C 9.054688 6 9.902344 6.851562 9.902344 7.898438 C 9.902344 8.949219 9.054688 9.800781 8.003906 9.800781 Z M 8.003906 9.800781 "/>
<path style=" stroke:none;fill-rule:nonzero;fill:rgb(12.941177%,58.823532%,95.294118%);fill-opacity:1;" d="M 4.40625 2.921875 C 2.921875 2.921875 1.71875 4.128906 1.71875 5.609375 L 2.742188 5.609375 C 2.742188 4.695312 3.488281 3.949219 4.40625 3.949219 Z M 4.40625 2.921875 "/>
<path style=" stroke:none;fill-rule:nonzero;fill:rgb(12.941177%,58.823532%,95.294118%);fill-opacity:1;" d="M 4.453125 2.230469 L 4.453125 1.207031 C 1.996094 1.207031 0 3.203125 0 5.65625 L 1.023438 5.65625 C 1.023438 3.769531 2.5625 2.230469 4.453125 2.230469 Z M 4.453125 2.230469 "/>
<path style=" stroke:none;fill-rule:nonzero;fill:rgb(12.941177%,58.823532%,95.294118%);fill-opacity:1;" d="M 11.59375 13.078125 C 13.078125 13.078125 14.28125 11.871094 14.28125 10.390625 L 13.257812 10.390625 C 13.257812 11.304688 12.511719 12.050781 11.59375 12.050781 Z M 11.59375 13.078125 "/>
<path style=" stroke:none;fill-rule:nonzero;fill:rgb(12.941177%,58.823532%,95.294118%);fill-opacity:1;" d="M 14.976562 10.34375 C 14.976562 12.230469 13.4375 13.769531 11.546875 13.769531 L 11.546875 14.792969 C 14.003906 14.792969 16 12.796875 16 10.34375 Z M 14.976562 10.34375 "/>
</g>
</svg>
