<?xml version="1.0" encoding="UTF-8"?>
<svg xmlns="http://www.w3.org/2000/svg" xmlns:xlink="http://www.w3.org/1999/xlink" width="16px" height="16px" viewBox="0 0 16 16" version="1.1">
<g id="surface1">
<path style=" stroke:none;fill-rule:nonzero;fill:rgb(95.686275%,26.274511%,21.176471%);fill-opacity:1;" d="M 12 1.601562 L 14.398438 1.601562 L 14.398438 4 C 14.398438 4.441406 14.757812 4.800781 15.199219 4.800781 C 15.640625 4.800781 16 4.441406 16 4 L 16 0.800781 C 16 0.589844 15.914062 0.382812 15.765625 0.234375 C 15.617188 0.0859375 15.410156 0 15.199219 0 L 12 0 C 11.558594 0 11.199219 0.359375 11.199219 0.800781 C 11.199219 1.242188 11.558594 1.601562 12 1.601562 Z M 12 1.601562 "/>
<path style=" stroke:none;fill-rule:nonzero;fill:rgb(95.686275%,26.274511%,21.176471%);fill-opacity:1;" d="M 14.632812 0.234375 L 2.632812 12.234375 C 2.320312 12.546875 2.320312 13.054688 2.632812 13.367188 C 2.945312 13.679688 3.453125 13.679688 3.765625 13.367188 L 15.765625 1.367188 C 16.078125 1.054688 16.078125 0.546875 15.765625 0.234375 C 15.453125 -0.078125 14.945312 -0.078125 14.632812 0.234375 "/>
<path style=" stroke:none;fill-rule:nonzero;fill:rgb(95.686275%,26.274511%,21.176471%);fill-opacity:1;" d="M 0.800781 13.601562 L 2.398438 13.601562 L 2.398438 15.199219 C 2.398438 15.640625 2.757812 16 3.199219 16 C 3.640625 16 4 15.640625 4 15.199219 L 4 12.800781 C 4 12.589844 3.914062 12.382812 3.765625 12.234375 C 3.617188 12.085938 3.410156 12 3.199219 12 L 0.800781 12 C 0.359375 12 0 12.359375 0 12.800781 C 0 13.242188 0.359375 13.601562 0.800781 13.601562 Z M 0.800781 13.601562 "/>
<path style=" stroke:none;fill-rule:nonzero;fill:rgb(95.686275%,26.274511%,21.176471%);fill-opacity:1;" d="M 11.601562 14.398438 L 12.164062 14.964844 C 13.609375 13.507812 14.390625 11.324219 14.398438 9.199219 C 14.402344 7.070312 13.578125 5.15625 12.207031 3.792969 C 10.84375 2.421875 8.929688 1.597656 6.800781 1.601562 C 4.667969 1.605469 2.492188 2.382812 1.03125 3.835938 C 0.722656 4.148438 0.722656 4.652344 1.035156 4.964844 L 11.035156 14.964844 C 11.183594 15.113281 11.390625 15.199219 11.601562 15.199219 C 11.8125 15.199219 12.015625 15.113281 12.164062 14.964844 L 11.601562 14.398438 L 12.164062 13.835938 L 2.164062 3.835938 L 1.601562 4.398438 L 2.167969 4.964844 C 3.234375 3.878906 5.066406 3.191406 6.800781 3.199219 C 8.519531 3.203125 10.007812 3.851562 11.078125 4.921875 C 12.144531 5.992188 12.796875 7.480469 12.800781 9.199219 C 12.808594 10.921875 12.113281 12.769531 11.035156 13.835938 L 11.601562 14.398438 L 12.164062 13.835938 Z M 11.601562 14.398438 "/>
</g>
</svg>
