<?xml version="1.0" encoding="UTF-8"?>
<svg xmlns="http://www.w3.org/2000/svg" xmlns:xlink="http://www.w3.org/1999/xlink" width="16px" height="16px" viewBox="0 0 16 16" version="1.1">
<g id="surface1">
<path style=" stroke:none;fill-rule:nonzero;fill:rgb(95.686275%,26.274511%,21.176471%);fill-opacity:1;" d="M 10.398438 1.601562 C 8.808594 1.601562 6.398438 2.398438 6.398438 2.398438 L 6.398438 5.601562 C 7.601562 5.601562 8.300781 6 9 6.398438 C 9.699219 6.800781 10.398438 7.199219 11.601562 7.199219 C 13.011719 7.199219 16 6.800781 16 4.800781 C 16 2.800781 12.800781 1.601562 10.398438 1.601562 Z M 3.199219 4 C 3.199219 4.882812 3.917969 5.601562 4.800781 5.601562 L 5.601562 5.601562 L 5.601562 2.398438 L 4.800781 2.398438 C 3.917969 2.398438 3.199219 3.117188 3.199219 4 Z M 7.199219 14.398438 C 9.601562 14.398438 12.800781 13.199219 12.800781 11.199219 C 12.800781 9.199219 9.808594 8.800781 8.398438 8.800781 C 7.199219 8.800781 6.5 9.199219 5.800781 9.601562 C 5.101562 10 4.398438 10.398438 3.199219 10.398438 L 3.199219 13.601562 C 3.199219 13.601562 5.609375 14.398438 7.199219 14.398438 Z M 0 12 C 0 12.882812 0.71875 13.601562 1.601562 13.601562 L 2.398438 13.601562 L 2.398438 10.398438 L 1.601562 10.398438 C 0.71875 10.398438 0 11.117188 0 12 Z M 0 12 "/>
</g>
</svg>
