<?xml version="1.0" encoding="UTF-8"?>
<svg xmlns="http://www.w3.org/2000/svg" xmlns:xlink="http://www.w3.org/1999/xlink" width="16px" height="16px" viewBox="0 0 16 16" version="1.1">
<g id="surface1">
<path style=" stroke:none;fill-rule:nonzero;fill:rgb(95.686275%,26.274511%,21.176471%);fill-opacity:1;" d="M 2.667969 16 C 3.15625 16 3.554688 15.601562 3.554688 15.109375 C 3.554688 14.621094 3.15625 14.222656 2.667969 14.222656 C 2.175781 14.222656 1.777344 13.824219 1.777344 13.332031 L 1.777344 2.667969 C 1.777344 2.175781 2.175781 1.777344 2.667969 1.777344 C 3.15625 1.777344 3.554688 1.378906 3.554688 0.890625 C 3.554688 0.398438 3.15625 0 2.667969 0 C 1.195312 0 0 1.195312 0 2.667969 L 0 13.332031 C 0 14.804688 1.195312 16 2.667969 16 Z M 8.890625 1.777344 C 9.378906 1.777344 9.777344 1.378906 9.777344 0.890625 C 9.777344 0.398438 9.378906 0 8.890625 0 L 7.109375 0 C 6.621094 0 6.222656 0.398438 6.222656 0.890625 C 6.222656 1.378906 6.621094 1.777344 7.109375 1.777344 Z M 14.222656 7.109375 C 14.222656 6.621094 14.621094 6.222656 15.109375 6.222656 C 15.601562 6.222656 16 6.621094 16 7.109375 L 16 8.890625 C 16 9.378906 15.601562 9.777344 15.109375 9.777344 C 14.621094 9.777344 14.222656 9.378906 14.222656 8.890625 Z M 9.777344 15.109375 C 9.777344 15.601562 9.378906 16 8.890625 16 L 7.109375 16 C 6.621094 16 6.222656 15.601562 6.222656 15.109375 C 6.222656 14.621094 6.621094 14.222656 7.109375 14.222656 L 8.890625 14.222656 C 9.378906 14.222656 9.777344 14.621094 9.777344 15.109375 Z M 13.332031 0 C 12.84375 0 12.445312 0.398438 12.445312 0.890625 C 12.445312 1.378906 12.84375 1.777344 13.332031 1.777344 C 13.824219 1.777344 14.222656 2.175781 14.222656 2.667969 C 14.222656 3.15625 14.621094 3.554688 15.109375 3.554688 C 15.601562 3.554688 16 3.15625 16 2.667969 C 16 1.195312 14.804688 0 13.332031 0 Z M 12.445312 15.109375 C 12.445312 15.601562 12.84375 16 13.332031 16 C 14.804688 16 16 14.804688 16 13.332031 C 16 12.84375 15.601562 12.445312 15.109375 12.445312 C 14.621094 12.445312 14.222656 12.84375 14.222656 13.332031 C 14.222656 13.824219 13.824219 14.222656 13.332031 14.222656 C 12.84375 14.222656 12.445312 14.621094 12.445312 15.109375 Z M 12.445312 15.109375 "/>
</g>
</svg>
