<?xml version="1.0" encoding="UTF-8"?>
<svg xmlns="http://www.w3.org/2000/svg" xmlns:xlink="http://www.w3.org/1999/xlink" width="16px" height="16px" viewBox="0 0 16 16" version="1.1">
<g id="surface1">
<path style=" stroke:none;fill-rule:nonzero;fill:rgb(95.686275%,26.274511%,21.176471%);fill-opacity:1;" d="M 0.992188 2.035156 L 0.992188 5.015625 L 0 5.015625 L 0 6.507812 L 0.496094 6.507812 L 0.496094 9.488281 L 0 9.488281 L 0 10.976562 L 0.992188 10.976562 L 0.992188 13.960938 L 3.261719 13.960938 C 4.484375 13.960938 5.660156 13.472656 6.523438 12.609375 L 8.683594 10.464844 L 12.679688 10.125 C 13.957031 10.019531 15.117188 9.34375 15.832031 8.273438 L 16.003906 7.996094 L 15.832031 7.71875 C 15.117188 6.648438 13.957031 5.976562 12.679688 5.867188 L 8.683594 5.53125 L 6.601562 3.449219 L 6.523438 3.386719 C 5.660156 2.523438 4.484375 2.039062 3.261719 2.039062 L 0.992188 2.039062 Z M 1.988281 3.027344 L 3.261719 3.027344 C 4.222656 3.027344 5.148438 3.40625 5.824219 4.085938 L 7.238281 5.511719 L 4.96875 5.511719 L 4.96875 6.507812 L 8.445312 6.507812 L 12.578125 6.847656 C 13.414062 6.914062 14.144531 7.367188 14.691406 7.996094 C 14.144531 8.625 13.414062 9.074219 12.578125 9.148438 L 8.398438 9.488281 L 4.972656 9.488281 L 4.972656 10.480469 L 7.242188 10.480469 L 5.828125 11.910156 C 5.148438 12.585938 4.226562 12.964844 3.265625 12.964844 L 1.988281 12.964844 L 1.988281 9.492188 L 1.492188 9.492188 L 1.492188 6.507812 L 1.988281 6.507812 Z M 11.929688 7.503906 L 11.929688 8.496094 L 12.925781 8.496094 L 12.925781 7.503906 Z M 2.980469 10.484375 L 2.980469 11.976562 L 3.976562 11.976562 L 3.976562 10.484375 Z M 2.980469 10.484375 "/>
</g>
</svg>
