<?xml version="1.0" encoding="UTF-8"?>
<svg xmlns="http://www.w3.org/2000/svg" xmlns:xlink="http://www.w3.org/1999/xlink" width="16px" height="16px" viewBox="0 0 16 16" version="1.1">
<g id="surface1">
<path style=" stroke:none;fill-rule:nonzero;fill:rgb(95.686275%,90.196079%,1.176471%);fill-opacity:1;" d="M 0.214844 13.75 L 1.523438 15.058594 C 1.804688 15.34375 2.265625 15.34375 2.550781 15.058594 C 2.835938 14.777344 2.835938 14.316406 2.550781 14.03125 L 1.242188 12.722656 C 0.957031 12.4375 0.496094 12.4375 0.214844 12.722656 C -0.0703125 13.007812 -0.0703125 13.464844 0.214844 13.75 Z M 1.984375 9.484375 L 2.640625 12.101562 C 2.738281 12.492188 3.132812 12.730469 3.523438 12.632812 C 3.910156 12.535156 4.148438 12.140625 4.050781 11.75 L 3.394531 9.132812 C 3.296875 8.742188 2.902344 8.507812 2.515625 8.601562 C 2.125 8.699219 1.886719 9.097656 1.984375 9.484375 Z M 3.167969 12.632812 L 5.789062 13.289062 C 6.175781 13.386719 6.570312 13.148438 6.667969 12.757812 C 6.765625 12.367188 6.53125 11.972656 6.140625 11.875 L 3.523438 11.222656 C 3.132812 11.125 2.738281 11.359375 2.640625 11.75 C 2.542969 12.140625 2.78125 12.535156 3.167969 12.632812 Z M 2.832031 11.414062 L 0.867188 13.375 C 0.582031 13.660156 0.582031 14.121094 0.867188 14.40625 C 1.152344 14.6875 1.613281 14.6875 1.894531 14.40625 L 3.859375 12.441406 C 4.144531 12.15625 4.144531 11.695312 3.859375 11.414062 C 3.574219 11.128906 3.117188 11.128906 2.832031 11.414062 Z M 11.199219 2.109375 L 10.6875 1.59375 L 4.140625 8.140625 C 3.96875 8.3125 3.894531 8.558594 3.941406 8.796875 L 4.269531 10.433594 C 4.328125 10.722656 4.550781 10.945312 4.839844 11.003906 L 6.476562 11.332031 C 6.714844 11.378906 6.960938 11.304688 7.132812 11.132812 L 13.679688 4.585938 C 13.769531 4.496094 13.835938 4.375 13.867188 4.25 L 14.523438 1.632812 C 14.585938 1.382812 14.511719 1.121094 14.332031 0.941406 C 14.152344 0.761719 13.890625 0.6875 13.640625 0.75 L 11.023438 1.402344 C 10.898438 1.4375 10.777344 1.503906 10.6875 1.59375 L 11.199219 2.109375 L 11.375 2.816406 L 12.820312 2.453125 L 12.507812 3.699219 L 6.378906 9.828125 L 5.601562 9.671875 L 5.445312 8.894531 L 11.714844 2.625 L 11.199219 2.109375 L 11.375 2.816406 Z M 11.199219 2.109375 "/>
<path style=" stroke:none;fill-rule:nonzero;fill:rgb(95.686275%,90.196079%,1.176471%);fill-opacity:1;" d="M 14.757812 12.722656 L 13.449219 14.03125 C 13.164062 14.316406 13.164062 14.777344 13.449219 15.058594 C 13.734375 15.34375 14.195312 15.34375 14.476562 15.058594 L 15.785156 13.75 C 16.070312 13.464844 16.070312 13.007812 15.785156 12.722656 C 15.503906 12.4375 15.042969 12.4375 14.757812 12.722656 Z M 12.601562 9.132812 L 11.949219 11.75 C 11.851562 12.140625 12.089844 12.535156 12.476562 12.632812 C 12.867188 12.730469 13.261719 12.492188 13.359375 12.105469 L 14.015625 9.484375 C 14.113281 9.097656 13.875 8.703125 13.484375 8.605469 C 13.097656 8.507812 12.699219 8.742188 12.601562 9.132812 Z M 12.140625 12.441406 L 14.105469 14.40625 C 14.386719 14.6875 14.847656 14.6875 15.132812 14.40625 C 15.417969 14.121094 15.417969 13.660156 15.132812 13.375 L 13.167969 11.414062 C 12.882812 11.128906 12.425781 11.128906 12.140625 11.414062 C 11.855469 11.695312 11.855469 12.15625 12.140625 12.441406 Z M 12.476562 11.222656 L 11.167969 11.546875 L 9.859375 11.875 C 9.46875 11.972656 9.234375 12.367188 9.332031 12.757812 C 9.429688 13.148438 9.824219 13.382812 10.210938 13.285156 L 11.523438 12.960938 L 12.832031 12.632812 C 13.21875 12.535156 13.457031 12.140625 13.359375 11.75 C 13.261719 11.359375 12.867188 11.125 12.476562 11.222656 Z M 6.550781 6.757812 L 3.492188 3.699219 L 3.179688 2.453125 L 4.429688 2.765625 L 7.484375 5.824219 C 7.769531 6.105469 8.230469 6.105469 8.515625 5.824219 C 8.796875 5.539062 8.796875 5.078125 8.515625 4.792969 L 5.3125 1.59375 C 5.222656 1.503906 5.101562 1.433594 4.976562 1.402344 L 2.359375 0.75 C 2.109375 0.6875 1.847656 0.761719 1.667969 0.941406 C 1.488281 1.121094 1.414062 1.382812 1.476562 1.632812 L 2.132812 4.25 C 2.164062 4.375 2.230469 4.496094 2.320312 4.585938 L 5.523438 7.785156 C 5.804688 8.070312 6.265625 8.070312 6.550781 7.785156 C 6.835938 7.503906 6.835938 7.042969 6.550781 6.757812 Z M 7.558594 9.824219 L 8.867188 11.132812 C 9.039062 11.304688 9.285156 11.378906 9.523438 11.332031 L 11.160156 11.003906 C 11.449219 10.945312 11.671875 10.722656 11.730469 10.433594 L 12.058594 8.796875 C 12.105469 8.558594 12.03125 8.3125 11.859375 8.140625 L 10.550781 6.832031 C 10.265625 6.546875 9.804688 6.546875 9.523438 6.832031 C 9.238281 7.117188 9.238281 7.574219 9.523438 7.859375 L 10.554688 8.894531 L 10.398438 9.671875 L 9.621094 9.828125 L 8.585938 8.796875 C 8.304688 8.511719 7.84375 8.511719 7.558594 8.796875 C 7.273438 9.078125 7.273438 9.539062 7.558594 9.824219 Z M 7.558594 9.824219 "/>
</g>
</svg>
